<?xml version="1.0" encoding="UTF-8"?>
<svg version="1.1" viewBox="0 0 2048 541" width="1280" height="1280" xmlns="http://www.w3.org/2000/svg">
<path transform="translate(1653,33)" d="m0 0h216l27 3 23 5 21 7 25 12 17 12 12 11 7 7 4 6h-100l-2-3-5-1-4 2-1 6 2 3 5 1 4-1v-2h105l7 11 8 16 6 19 3 17 1 10v24l-2 16-4 15-8 18-11 18-9 12-11 12-15 15-1-3h-115l-16-10-27-18-19-1-4-5h-8l-4 4v7l5 5 8-1 4-5h16l22 14 21 14h118l12 21 13 24 13 23 12 22 13 23 10 18 1 3h-145l-3-5-15-32-16-36-13-28-279-1-4 17-18 65-6 21-1 1h-152l3-12 21-71 5-16 2-1h20l2-5 12-20 12-19 4-6h133l30 20 11 7 119 1 4 4 7 1 5-4 1-5-3-6-1-1h-9l-3 3-1 3h-118l-38-25-3-2-137-1-2 5-12 19-16 26-3 1h-13l-1-3 21-72 24-82 7-21 9-20 9-17 12-17 9-11 6-5v126l-4 5 1 6 2 2h6l3-3v-6l-3-3v-133l7-7 13-10 4-3h2l1 173 10 13 5 7 1 9 3 2 7-1 1-2v-7l-3-2-6-2-14-19-1-2v-172l8-5 14-7 16-6 25-6 14-2v133l-5 5-6 7-9 17-7 21-4 15 29 1h208l18-2 12-4 10-6 7-9 4-9 2-12v-11l-2-10-4-10-9-10-10-6-15-4-13-1h-51l-1 78h-137v-90l35-1 28-42 3-2v-5l-1-1h-5l-1 5-5 9-19 29-2 3h-33l-1-54v-34zm177 30-5 5 1 6 5 3 5-2 1-1h13l14 9 3 6 1 1h6l3-3v-5l-3-3-8-1-15-10-13-1-2-3z" fill="#4EE3C3"/>
<path transform="translate(803,193)" d="m0 0h30l20 3 14 5 11 7 8 8 4-16 1-3h101l-1 9-27 135-1 7v8l3 8 6 4 3 1h15l9-2-1 11-7 11-9 11-9 10-7 8-8 7-13 10-12 6-8 2h-14l-15-5-11-7-10-9-7-10-2-3-4 1-7 8-9 9-14 9-16 7-14 3-9 1h-14l-17-3-12-4-17-9-13-10-8-8-11-15-9-19-5-19-1-9-2 3-9 19-10 14-11 12-8 8-17 13-8 5-2-1 7-7 9-13 6-12 4-13 1-5v-23l-3-13-7-14-8-10-9-8-10-6-13-5-15-3-32-2-11-4-8-7-4-10v-8l4-10 8-8 11-5 19-4 7-1h32l20 4 13 5 13 7 10 8 9 9 9 14 5 12 2 6 1-6-6-16-7-11-9-11-12-10-16-9-16-6-15-3-8-1h-31l-2-7-8-2h-16l-8-3-3-4 1-5 6-5 8-3 16-2h27l20 3 16 5 16 7 15 10 12 11 8 9 8 13 5 10 5 15 3 16v25l1-18-2-19-1-6 8-16 9-14 11-13 8-8 15-11 14-8 14-6 15-4zm86 30m1 1 1 2zm1 2 1 2zm1 2 1 2zm1 2 1 5 7 21 4 18h1l-1-13-6-21-5-10zm-93 20-13 5-13 9-8 10-6 12-3 11-1 15 2 14 5 13 6 10 9 10 10 7 11 5 7 2h16l13-4 11-7 10-9 9-13 2-6-7 6-11 7-11 4-5 1h-18l-14-4-11-6-8-7-7-11-4-12-1-5v-12l3-13 7-13 9-10 10-6 4-3zm23 11-12 2-12 5-11 8-9 11-5 12-1 5v9l4 13 7 9 8 6 9 4 2-1-3-8-1-4v-14l3-10 7-11 8-6-5 5-6 7-4 11-1 5v9l3 11 6 8h8l-6-10-2-8v-7l3-10 4-6 6-7-5 2-6 5-4 6 6-10 8-7 11-4 11-1h6l-2-2-7-2h1l12 4 8 6 2 1-1-5-7-11-10-9-8-4 15 3-4-4-9-4-11-2zm30 10m53 4 1 4zm-29 3-4 8-3 14-1 39-2 15 4-4 6-12 2-6 1-7v-9l-2-15v-23zm-181 46 1 4zm-1 5 1 3zm-1 4 1 2z" fill="#4EE3C3"/>
<path transform="translate(1653,33)" d="m0 0h216l27 3 23 5 21 7 25 12 17 12 12 11 7 7 4 6h-100l-2-3-5-1-4 2-1 6 2 3 5 1 4-1v-2h105l7 11 8 16 6 19 3 17 1 10v24l-2 16-4 15-8 18-11 18-9 12-11 12-15 15-1-3h-115l-1-3-4-2 1-2 9-1 5-4 4-3-2-1 1-3-3-2-1-8-4-9 1-6 3-3v-2l-4-2 1-5v-5l-2-1 2-6h2l1-2 5-4 10-6 7-9 4-9 2-12v-11l-2-10-4-10-9-10-10-6-15-4-13-1h-51l-1 78h-137v-90l35-1 28-42 3-2v-5l-1-1h-5l-1 5-5 9-19 29-2 3h-33l-1-54v-34zm177 30-5 5 1 6 5 3 5-2 1-1h13l14 9 3 6 1 1h6l3-3v-5l-3-3-8-1-15-10-13-1-2-3z" fill="#4C93DF"/>
<path transform="translate(1140,197)" d="m0 0h16l18 2 18 5 16 8 10 8 7 7 8-6 14-9 15-7 17-5 11-2 11-1h17l18 2 17 4 17 7 15 10 9 8 10 13 8 17 4 17 1 8v18l-4 26-6 31-5-2-11-5-11-3-8-1h-11l-17 3-15 6-9 6-3 3-1 3v7l4 5 4 2h9l3-2-6-4-2-4v-7l4-6 3-1v7l5 5h9l4-2-6-4-2-4 1-7 5-2-2 4 14 3 10 4 10 8 7 9 4 11 1 10-2 12-6 12-9 10 10-3 4-1-1 5-8 4-9 2h-19l-25-5-20-8-14-7 2-13 18-90 1-7v-17l-4-10-6-5-7-2h-10l-9 3-8 7-6 12-5 19-24 123h-99l5-27 19-97 1-7v-16l-4-11-8-5-4-1h-11l-9 3-7 6-5 9-4 10-3 12-15-3h-20l-15 4-12 6-11 9-8 11-5 11-2 11 1 14 1 4 3-16 8-16 9-10 9-8 16-8 17-4 8-1h10l4 1v2l-16 1-15 4-11 6-10 9-7 9-4 9-2 9v13l3 12 5 10 9 10 14 7h3l-8-9-5-11-2-10v-9l3-14 8-15 9-10 10-7 10-5 4-1-1 11-15 77-2 2-7-10-5-11-2-9v-18l2-13-6 12-2 9v11l4 13 6 9 11 11-1 1h-9l-13-3-9-5-9-8-6-10-4-11-1-6v-13l3-12 5-10 9-10-7 6-8 10-5 11-3 14v8l3 15 7 14 11 12 10 7 10 5-2 1h-84l-10 2 2-4 8-13 6-14 22-109 6-22 9-21 8-13 11-14 11-10 15-10 15-7 20-6 18-3z" fill="#4C93DF"/>
<path transform="translate(27,203)" d="m0 0h98l-5 27-19 95-1 7v19l3 8 7 6 7 2h10l11-4 7-8 4-8 5-17 24-123 1-4h99l-20 103-5 27v18l3 9 6 5 7 2h11l9-3 7-6 7-14 4-14 25-127h99l-20 102-9 43-8 24-11 21-9 12-8 9-11 9-5-2-14-10-12-7-16-6-9-2h-22l-15 4-19 9-17 12-11 7-2 1h-8l-8-7-6-5-11 9-16 9-15 6-16 4-12 1-9-2h-9l-9 2-13-1-12-3-8-8-6-10-4-13-2-12-1 4v16l4 11 4 7-5-1-4-4-3-7-1-5v-18l4-13 6-11 9-10 11-7 7-3h-12l-14 4-11 7-6 5-9 13-4 11-2 16-4-4v-10l4-12-7 16-3-3 4-10 7-11 8-8 14-9 11-5 13-3h12l-15-3h-8l-15 3-16 8-10 9-7 9-3 6h-2l-4-16-1-6v-26l8-43 18-92zm-2 179m-1 2m-1 1 1 2z" fill="#4C93DF"/>
<path transform="translate(1653,33)" d="m0 0h216l2 1-1 6h-2l4 6-1 6-1 1 3 2-1 4-3-1v6l-1 2 3 1-4 1-1 3-8-1 4 5-5-2-6-4-13-1-2-3-6-1-4 4 1 6 5 2 5-3h13l15 10 3 6 5 1 1 5-1 3-7 1-4 3 3 3-1 1 5 3-4 4-2 1 1 10 4 3-2 4-7-1 2 2-17 4-1 1 7 1v1h-59l-1 78h-137v-90l35-1 28-42 3-2v-5l-1-1h-5l-1 5-5 9-19 29-2 3h-33l-1-54v-34z" fill="#4EC0CE"/>
<path transform="translate(1477,291)" d="m0 0h133l30 20 11 7 23 1-2 2h-6l3 2v5h-2v2l6 2 4 2 8 1v1l-16 1h-92l-4 17-18 65-6 21-1 1h-152l3-12 21-71 5-16 2-1h20l2-5 12-20 12-19z" fill="#4EE3C3"/>
<path transform="translate(1973,305)" d="m0 0 3 3 48 87 13 23 10 18 1 3h-145l-3-5-15-32-16-36-13-28-33-1 4-2 5-2 9-1h18 3l3-5 6-2 1-2h2l-1-7-4-3v-3l-1-2 3-1h102z" fill="#4C93DF"/>
<path transform="translate(563,194)" d="m0 0h27l20 3 16 5 16 7 15 10 12 11 8 9 8 13 5 10 5 15 3 16v24l-4 20-5 15-2 1-2-2-7 16-7 12-11 14-14 14-17 13-8 5-2-1 7-7 9-13 6-12 4-13 1-5v-23l-3-13-7-14-8-10-9-8-10-6-13-5-15-3-32-2-11-4-8-7-4-10v-8l4-10 8-8 11-5 19-4 7-1h32l20 4 13 5 13 7 10 8 9 9 9 14 5 12 2 6 1-6-6-16-7-11-9-11-12-10-16-9-16-6-15-3-8-1h-31l-2-7-8-2h-16l-8-3-3-4 1-5 6-5 8-3z" fill="#4C93DF"/>
<path transform="translate(1653,33)" d="m0 0h102l2 2-8 1 4 6-1 5-7 8 3 1-1 4-3 4 4 18v11l-6 27-4 12v14l2-1 1 3v9l-2 11 1 8 3 10v11l-4 6-5 4 1 2-3 3h4v2l25 2v1h-108v-90l35-1 28-42 3-2v-5l-1-1h-5l-1 5-5 9-19 29-2 3h-33l-1-54v-34z" fill="#4ED0C9"/>
<path transform="translate(1867,229)" d="m0 0 3 1-4 3-2 2 1 3-2 1 2 6-1 5 4 2-2 4-2 3 1 6 4 10v5l3 2-2 3 3 1-5 5-3 2-9 2-2 1 3 2-1 2-29-19-12-8-19-1-4-5h-8l-4 4v7l5 5 8-1 4-5h16l22 14 21 14 117 1v1l-102 1-2 1 1 3 2 1-1 1 3 3 1 4-3 4-2 2-6 2-3 5-5-1h-17l-11 2-5 2h-154v-1l7-1-6-1 2-2-6-1 1-3h2l-1-5h-2v-2l8-2h96l4 4 7 1 5-4 1-5-3-6-1-1h-9l-3 3-1 3h-38l2-3h2v-3h-3l-1-3 5-4 3-9v-6l-1-2-1-19 2-7-3-1 6-11v-5l-1-3 1-2 10-2 89-1 18-2z" fill="#4DBFCF"/>
<path transform="translate(1654,353)" d="m0 0h136v86h-137v-85z" fill="#4FD0C9"/>
<path transform="translate(449,251)" d="m0 0h8l27 5 2 2v14l-11 132-5-1-14-9-2-1 7 9 7 8 5 4v13l-1 7-2 2-6 1h-56l-4-2-1-4 20-82 23-94z" fill="#4EE3C3"/>
<path transform="translate(1676,234)" d="m0 0h77v1l-10 1 1 10-6 11 2 1-1 11 1 15 1 2-1 11-4 6-3 3v2h3v3l3 2-7 1h-64l-1-2-4-2h2v-2h2v-2l-4-1 3-1-2-2h2l2-10h-2l-1-3-2-1-2-15-2-4v-5h3l1-5 9-6 2-11-1-5h3z" fill="#4FD0C9"/>
<path transform="translate(563,194)" d="m0 0h27l20 3 16 5 16 7 15 10 12 11 8 9 8 13 5 10 5 15 3 16v24l-4 20-5 15-2 1-2-4v-28l2-17 2-8-1-8-6-13-6-10-9-11-12-10-16-9-16-6-15-3-8-1h-31l-2-7-8-2h-16l-8-3-3-4 1-5 6-5 8-3z" fill="#4C93DF"/>
<path transform="translate(1704,353)" d="m0 0h86v86l-38-1-15-1-8-3v-3l4-4 6-5 2-7-2-13-2-3v-12l3-6-4-2 8-11v-6l-2-5 2-2-40-1z" fill="#4DBFCF"/>
<path transform="translate(626,368)" d="m0 0h1v8l-4 17-8 16-8 10-8 8-14 9-12 5-13 3h-25l-17-4-19-8-16-10-13-12-9-9 1-2 14 8 14 6 14 4 13 2h24l20-4 17-6 16-9 13-10 11-11z" fill="#4C93DF"/>
<path transform="translate(480,184)" d="m0 0 3 3 2 5 1 14 9-4h12l-1 7-7 9-6 4 9 2 9 5 4 5-10 4-6 1 5 5 4 6v1h-12l-9-4-12-8-7-1-3-1-11 4-13 1-7-2v-4l9-6-3-2-8-6-1-3 6-3 5-1h12l-6-9-2-6v-8l10 2 8 6h2l3-6 6-7z" fill="#4EE3C3"/>
<path transform="translate(582,297)" d="m0 0h8l15 5 13 8 11 10 9 14 5 12 2 8v16l-3 14-6 15-7 11-11 12-10 9-13 8-2-1 13-11 9-10 8-13 5-14 2-10v-15l-3-12-7-13-9-9-11-7-11-5 1-3 2-1v-5l-4-3-6-2-1-6z" fill="#4C94DF"/>
<path transform="translate(1867,229)" d="m0 0 3 1-4 3-2 2 1 3-2 1 2 6-1 5 4 2-2 4-2 3 1 6 4 10v5l3 2-2 3 3 1-5 5-3 2-9 2-2 1 3 2-1 2-29-19-6-4-2-3v-3l6 1 3-1 3 1h6l1-4-4-7v-7l6-8-1-4-4-3-1-4 7-1 1-1 18-2z" fill="#4CB2D4"/>
<path transform="translate(1837,73)" d="m0 0h13l15 10 3 6 5 1 1 5-1 3-7 1-4 3 3 3-1 1 5 3-4 4-2 1 1 10 4 3-2 4-7-1 2 2-17 4-1 1 7 1v1l-31-1v-3l5-4 5-3 4-4-1-3 2-4v-4l-3-2 5-1v-5l-2-2 6-8 1-7h3l-3-3v-2l-4-2-2-4z" fill="#4CB2D4"/>
<path transform="translate(1653,127)" d="m0 0h35l-4 2-6 1-1 3h-4v2l-3 2 1 5-5 10 2 12v17l5 13-1 7-1 2 3 3-3 2 2 1v3l-7-1v2l4 1 26 1 65 1v1h-108z" fill="#4FE3C3"/>
<path transform="translate(1654,353)" d="m0 0h50v1l-34 2v4h2v2h2l-1 9-3 6-3 18 4 17 1 5-2 4h-2l2 3 3 2-4 1v2l2 1-5 1-3-1 1 5 10 1 21 1 92 1v1h-134v-85z" fill="#4FE3C3"/>
<path transform="translate(1819,284)" d="m0 0 7 1 30 20 117 1v1l-102 1-2 1 1 3 2 1-1 1 3 3 1 4-3 4-2 2-6 2-3 5-5-1h-17l-11 2-5 2-11-1 5-5 8-6 2-4-3-1 5-4 5-1-2-2 6-2-1-8v-3l-8-7-4-3v-2l-5-2z" fill="#4CB2D4"/>
<path transform="translate(1653,33)" d="m0 0h22l8 1v1l-5 1v8l-8 14v10l-1 7h-2l-1 16v2h-2l3 12-2 4 1 5h-2v5l5 2v1h-16l-1-54v-34z" fill="#4FE2C3"/>
<path transform="translate(1674,319)" d="m0 0h96l1 2h-20l-7 1-6 7h-2l1 3 10 3 9 1v1h-87v-1l7-1-6-1 2-2-6-1 1-3h2l-1-5h-2v-2z" fill="#4FD0C9"/>
<path transform="translate(1842,33)" d="m0 0h27l2 1-1 6h-2l4 6-1 6-1 1 3 2-1 4-3-1v6l-1 2 3 1-4 1-1 3-8-1 4 5-5-2-6-4-13-1-2-3-7-2-2-1 1-4 4-5 8-5 2-3-1-3-5-4 1-3z" fill="#4CB1D5"/>
<path transform="translate(268,409)" d="m0 0h21l15 2 18 6 21 10 1 3-6 3-8-1-24-11-15-6-8-2h-18l-14 5-12 8-12 9-7 3-6-3v-2l10-2 11-7 10-7 10-5z" fill="#4C94DF"/>
<path transform="translate(263,428)" d="m0 0h18l4 1h17l10 4 7 5v2l-5-2-8-5-3-1h-11l-14 5-17 10-18-2-15-4 3-2 24-9z" fill="#4C94DF"/>
<path transform="translate(690,295)" d="m0 0h1l2 12v19l-3 16-3 8-2-1v-28l2-17z" fill="#4EDCC5"/>
<path transform="translate(992,408)" d="m0 0h1l-1 13-3 19-9 3-5 1 2-4 8-13 6-14z" fill="#4EDFC4"/>
<path transform="translate(1861,334)" d="m0 0 2 4 2 11 1 5 4 8 5 12 1 4-3-3-17-37 2-1v2l2-1-1-2h2z" fill="#4CB1D5"/>
<path transform="translate(1842,73)" d="m0 0h8l15 10-1 5-5-3-8-6-9-5z" fill="#4C98DE"/>
<path transform="translate(691,332)" d="m0 0h1l1 8-4 12-2 1-1-3 3-8z" fill="#4CAAD7"/>
<path transform="translate(1863,352)" d="m0 0h2l5 10 5 12 1 4-3-3-10-22z" fill="#4CB4D4"/>
<path transform="translate(823,287)" d="m0 0 3 1z" fill="#4FE4C3"/>
<path transform="translate(589,440)" d="m0 0 2 1z" fill="#4CA2DA"/>
<path transform="translate(591,439)" d="m0 0 2 1z" fill="#4C93E0"/>
<path transform="translate(616,426)" d="m0 0 2 1z" fill="#4C93E0"/>
<path transform="translate(806,315)" d="m0 0" fill="#4FE4C3"/>
<path transform="translate(819,289)" d="m0 0 2 1z" fill="#4FE4C3"/>
<path transform="translate(821,288)" d="m0 0 2 1z" fill="#4FE4C3"/>
<path transform="translate(588,441)" d="m0 0" fill="#4CB2D5"/>
<path transform="translate(56,437)" d="m0 0" fill="#4CB2D5"/>
<path transform="translate(618,425)" d="m0 0" fill="#4C93E0"/>
<path transform="translate(1351,350)" d="m0 0" fill="#4C93E0"/>
</svg>
